<svg width="300" height="1000" viewBox="0 0 300 1000" fill="none" xmlns="http://www.w3.org/2000/svg">
<g clip-path="url(#clip0_2988_18652)">
<path d="M116.842 200.697V61.8167C116.842 61.0696 117.448 60.4641 118.195 60.4641C118.942 60.4641 119.547 61.0696 119.547 61.8167V200.579L116.842 200.697Z" fill="#434342"/>
<path d="M292.264 107.541C291.32 106.881 290.102 106.81 289.086 107.352C285.899 109.058 281.441 109.517 276.195 108.684C271.226 107.892 266.43 106.339 261.94 104.066C261.625 103.907 261.311 103.743 260.997 103.58L260.792 103.473C258.793 102.429 256.725 101.349 254.308 100.881C251.724 100.379 249.229 100.682 246.79 100.975C244.896 101.206 242.938 101.444 241.202 101.187C237.007 100.568 234.261 96.5009 231.836 92.9105L231.182 91.9478C224.78 82.5908 224.579 74.3918 224.346 64.8962C224.189 58.4621 224.009 51.1693 221.933 42.581C220.816 37.9664 220.147 35.6379 217.177 33.135C215.868 32.0316 214.44 31.3848 213.049 30.7539C212.224 30.3795 211.372 29.9922 210.683 29.5465C208.323 28.0182 206.749 25.2924 205.578 20.7224C205.44 20.149 205.224 18.7088 205.405 17.8065C205.706 17.3301 207.273 15.8464 208.425 14.7549C211.884 11.4804 212.606 10.691 212.387 9.7689C212.292 9.37172 212.37 8.12525 211.973 8.00639C210.972 7.70232 204.715 7.05356 201.113 11.4354C196.412 17.1543 198.606 29.7812 199.212 30.8173C199.281 30.9361 199.362 31.0322 199.447 31.1104C200.033 32.3941 200.957 34.3651 201.65 35.5754C201.917 36.04 202.208 36.5233 202.519 37.0384C204.573 40.4376 207.38 45.0859 209.063 55.666C208.948 56.2356 208.595 57.2201 208.253 58.1769C206.246 63.7799 202.239 74.9682 209.532 91.6882C207.745 90.0599 206.133 88.4088 204.714 86.7498C200.724 82.0877 198.728 76.6589 199.239 71.8552C199.525 69.1522 200.607 66.4155 201.661 63.7502C202.166 62.4715 202.738 61.0215 203.212 59.5794C204.005 57.1587 206.113 50.7276 202.018 45.2543C200.593 43.3526 198.325 42.3126 196.317 41.3934C195.159 40.8625 193.961 40.3138 193.225 39.7126C192.89 39.4392 192.684 38.9262 192.323 37.8961C192.077 37.1958 191.798 36.4015 191.354 35.5982C190.347 33.7778 187.899 30.6409 186.253 29.3236C169.423 15.8602 148.336 12.6462 135.735 10.7267C131.89 10.1403 128.853 9.67777 127.352 9.134C117.275 5.48513 114.999 4.17177 114.906 4.11631C113.971 3.56957 113.056 2.40831 112.114 2.94217C111.173 3.47801 110.332 5.63667 110.324 6.72024C110.311 8.51694 110.737 10.2631 111.555 11.7667C113.571 15.4829 126.517 22.7542 145.937 25.7738C147.402 26.0016 145.907 28.5471 147.216 28.8591C147.296 28.8898 147.38 28.9166 147.468 28.9423C147.962 29.079 150.326 29.8674 152.895 30.7856C151.88 30.8281 150.835 30.9262 149.742 31.0807C134.389 33.2409 117.098 49.4281 116.935 49.5895L116.758 49.7658C114.657 51.8686 109.765 56.7654 103.826 56.7654C103.761 56.7654 103.692 56.7664 103.629 56.7644C102.239 56.7644 100.991 57.7331 100.658 59.0732C100.314 60.4549 100.96 61.8713 102.23 62.519C102.71 62.7637 103.244 62.9697 103.813 63.1312L104.402 63.3065C106.207 63.8572 108.677 64.6129 113.347 63.6353C117.773 62.7122 126.068 57.3498 127.002 56.7397C130.564 54.3982 131.482 54.007 133.936 52.9611C134.817 52.5857 135.868 52.137 137.248 51.515C138.037 51.1604 138.867 50.8068 139.705 50.4611C139.841 50.4057 139.971 50.3403 140.097 50.266L140.133 50.2442C140.172 50.2204 140.21 50.1957 140.248 50.1709L140.354 50.0996C140.682 49.8837 141.539 49.4013 142.798 48.8288C139.445 51.7963 136.99 55.4333 135.077 58.6354C134.12 60.238 133.026 62.1149 132.162 64.1117C130.775 67.3169 130.021 70.6884 129.293 73.948C129.17 74.4938 129.047 75.1178 128.913 75.7923C128.524 77.7583 127.337 83.7388 125.822 84.2459C124.459 84.7015 123.594 86.0674 123.766 87.4956C123.938 88.9219 125.102 90.0441 126.531 90.1629C127.149 90.2184 127.768 90.1718 128.374 90.0302C129.362 89.7994 130.421 89.3696 131.523 88.7535C136.459 85.9941 139.62 83.2188 142.178 76.4688C142.306 76.134 142.46 75.6794 142.64 75.1475L142.709 74.9434C143.213 73.4409 144.152 70.6458 144.991 69.4275C146.425 67.3446 148.32 64.9942 150.619 62.4428C150.794 62.2496 150.945 62.0327 151.065 61.801C151.135 61.6653 151.19 61.5613 151.22 61.5098C152.143 59.9092 153.791 57.6569 155.26 56.4356C156.34 55.8621 158.043 55.1856 160.161 55.1084C161.119 55.0727 162.078 55.0529 163.035 55.049C159.324 56.1167 157.123 56.9308 156.006 57.6301C148.776 62.1496 144.328 78.207 141.26 91.6962C141.012 92.7857 140.732 94.0198 140.623 94.3476L140.559 94.5735C140.429 95.0548 140.308 95.3054 140.245 95.4193C138.965 95.7194 138.006 96.8198 137.91 98.1629C137.789 99.8308 139.048 101.291 140.736 101.418C143.451 101.595 146.413 100.535 148.281 98.7027C149.474 97.535 151.451 94.9241 152.419 93.4889C153.911 91.2772 156.358 86.7587 158.725 82.3858L158.787 82.2729C160.367 79.354 163.309 73.9183 163.814 73.329C166.946 70.1545 172.686 67.0861 176.988 65.2656C178.009 72.3151 178.567 74.9207 182.301 81.433C187.634 90.7305 192.14 97.6558 196.483 103.226C199.297 106.838 202.058 109.834 204.922 112.383C213.147 119.7 227.571 126.64 237.474 125.584C238.284 125.498 242.03 125.314 242.755 125.135C244.125 124.797 245.542 124.448 247.837 124.628C249.98 124.798 252.363 125.81 254.118 126.556C255.181 127.007 256.021 127.364 256.818 127.562C259.996 128.353 263.161 128.402 266.11 128.402C268.617 128.461 270.263 128.5 271.714 128.5C274.548 128.5 276.582 128.36 282.624 127.946C285.006 127.782 287.054 126.593 288.241 124.687C290.939 120.351 292.869 115.167 293.534 110.462C293.696 109.32 293.209 108.201 292.264 107.541Z" fill="#BFDDE4"/>
<path d="M208.524 61.2057C211.322 49.9747 204.566 40.1187 202.444 36.6035C202.149 36.1172 201.905 35.6403 201.622 35.2198C199.64 32.2765 198.698 28.8032 198.698 28.8032C198.324 28.9882 197.322 29.4951 194.074 27.0609C189.05 23.2949 177.428 17.7891 175.269 16.656C166.666 12.1326 157.46 9.81539 148.117 8.33267C146.869 8.13458 137.859 6.58747 136.537 6.34085C132.438 5.5772 126.888 3.90431 125.918 3.64481C123.861 3.09411 121.735 2.52558 119.043 1.92041C119.043 1.92041 117.825 1.63912 116.715 1.51927C115.493 1.37608 114.454 1.30889 113.581 1.38102C111.142 1.58241 110.109 5.5245 111.856 7.23704C113.686 9.03007 117.373 11.4562 124.537 12.8849C126.192 13.3434 128.714 13.7307 131.908 14.221C143.561 16.0098 165.251 19.3377 182.095 32.813C183.257 33.7431 185.416 36.5035 186.18 37.8852C186.46 38.3903 186.66 38.9618 186.873 39.566C187.298 40.7783 187.781 42.1521 189.035 43.1762C190.175 44.1073 191.612 44.7659 193.02 45.4107C194.652 46.1575 196.34 46.9301 197.146 48.0087C199.656 51.3624 198.778 55.4511 197.732 58.6384C197.291 59.9824 196.741 61.3731 196.253 62.6072C195.108 65.5063 193.925 68.5044 193.581 71.7492C192.952 77.6553 196.181 83.5536 200.008 89.7103C203.205 94.8528 209.981 103.591 217.044 103.591C218.035 103.591 218.034 102.824 218.034 102.824C218.035 102.57 215.437 100.545 214.499 99.0411C201.277 77.8379 206.9 67.7261 208.524 61.2057Z" fill="#010101"/>
<path d="M102.534 62.665C110.391 62.664 117.684 54.8489 119.945 52.5906C122.449 50.0887 137.826 37.0057 150.45 35.2288C156.208 34.4176 159.494 35.5269 163.301 36.8155C163.773 36.975 168.532 38.4646 170.811 39.1134C171.919 39.4303 173.156 39.7829 174.606 40.2059C174.685 40.2286 176.452 40.6773 176.763 40.7952L177.666 41.1042C178.122 40.854 178.052 39.5152 177.861 39.0312C177.634 38.457 163.187 30.7241 161.273 29.802C159.137 28.7719 154.305 27.0307 150.817 25.853C149.228 25.3172 147.541 25.2895 145.937 25.7738C140.223 27.5002 133.625 30.7321 128.287 34.4196C125.207 36.5481 122.607 38.7043 120.084 40.7962C117.675 42.794 115.184 44.8591 112.285 46.8786C108.775 49.3271 104.627 52.6491 101.717 55.3431C100.52 56.4534 99.3353 57.6882 99.9408 60.3116C100.396 62.2836 102.465 62.665 102.534 62.665Z" fill="#010101"/>
<path d="M291.131 85.9088C289.778 83.1286 284.957 81.5438 282.142 81.5102C273.449 81.4091 262.827 80.8901 259.082 79.7372C254.609 78.3615 252.429 75.1048 249.651 70.9558C248.624 69.4235 247.561 67.8398 246.303 66.259L246.003 65.8846C244.311 63.7799 239.816 58.1897 238.261 52.9501C237.071 48.9387 235.703 46.108 233.826 43.7685C232.874 42.5829 231.841 41.4399 230.907 40.4069C229.754 39.1302 228.563 37.8099 227.535 36.4381C226.693 35.3179 225.924 34.1204 225.172 32.9497L225.07 32.7902C220.662 25.9283 216.104 18.8336 214.51 11.0881C214.28 9.9689 213.588 8.98537 212.612 8.38911C212.382 8.24747 212.126 8.12466 211.851 8.02165C211.087 7.73838 210.25 7.70866 209.432 7.93251C206.926 8.62782 204.452 10.4602 202.951 12.7551C201.509 14.9757 201.015 17.7956 201.594 20.4906L201.636 20.6719C202.612 24.4862 204.271 29.2136 208.476 31.9374C209.42 32.5485 210.415 32.9992 211.383 33.439C212.566 33.9748 213.683 34.4819 214.562 35.2228C216.456 36.8194 216.902 38.0318 217.989 42.5205C219.964 50.6839 220.129 57.4439 220.289 63.9819C220.538 74.1193 220.752 82.875 227.833 93.2234L228.472 94.1653C231.221 98.2371 234.642 103.305 240.608 104.185C242.881 104.521 245.112 104.25 247.299 103.986C249.493 103.718 251.565 103.468 253.534 103.848C255.37 104.205 257.171 105.146 258.917 106.057L259.149 106.178C259.467 106.343 259.786 106.509 260.106 106.671C264.971 109.133 270.169 110.817 275.555 111.675C277.456 111.979 279.31 112.132 281.064 112.132C283.97 112.132 289.759 111.665 293.029 109.915L293.483 109.672L293.555 109.163C293.624 108.677 293.682 108.194 293.721 107.721C294.199 101.928 293.483 96.1562 292.708 91.2148C292.135 88.6098 291.441 86.5437 291.131 85.9088Z" fill="#010101"/>
<path d="M151.383 47.2044C154.215 46.1149 157.381 45.9277 160.104 45.8871C162.622 45.8524 165.165 45.9396 167.64 46.1486C167.679 46.1526 171.843 46.2387 172.438 45.5731L172.804 45.1512L172.655 44.6203C172.519 44.1399 172.429 43.823 167.159 42.1986C163.39 41.0328 161.163 40.4841 157.045 40.4841C147.866 40.4841 141.165 43.304 138.164 45.7643C135.499 48.2692 132.039 52.1845 130.32 55.66C130.11 56.0849 129.867 56.5524 129.587 57.0922C128.562 59.0682 127.286 61.5285 126.842 63.5342C124.838 72.6079 123.349 82.3027 122.914 85.9873C122.764 87.2511 123.243 88.513 124.194 89.3628C124.486 89.6248 125.088 89.8451 125.649 90.0058C126.541 90.2617 127.529 90.1203 128.241 89.5248C130.677 87.4875 131.811 81.3105 132.827 75.9497C132.983 75.1306 133.12 74.4016 133.252 73.8123C133.939 70.7389 134.65 67.5605 135.884 64.7089C136.653 62.93 137.668 61.1918 138.558 59.7011C142.673 52.8164 146.508 49.0784 151.383 47.2044Z" fill="#010101"/>
<path d="M138.678 100.956C139.064 101.132 139.888 101.394 140.575 101.394C142.412 101.394 143.599 99.084 144.106 96.6099L144.128 96.489C144.267 96.076 144.47 95.1836 144.88 93.3631C146.503 86.1624 151.438 64.2514 158.153 60.0538C160.281 58.7246 170.596 56.186 176.137 54.8221C178.201 54.315 179.693 53.9476 180.236 53.7772C180.236 53.7772 180.948 53.61 180.932 52.6312C180.921 52.021 180.744 51.5546 174.524 50.7068C171.335 50.272 166.23 49.8015 160.008 50.0382C156.962 50.1491 154.553 51.1634 153.068 51.9934L152.94 52.0796C150.991 53.5989 148.907 56.3821 147.709 58.4591C147.551 58.7276 143.341 67.9161 140.894 75.8537L140.237 77.9673C138.529 83.4278 136.895 90.4742 136.502 97.2796C136.407 98.9446 137.201 100.286 138.678 100.956Z" fill="#010101"/>
<path d="M12.6035 228.221L12.6196 228.217C12.6167 228.204 12.6138 228.192 12.6108 228.179L12.6035 228.221Z" fill="#010101"/>
<path d="M97.0025 62.2857C96.9941 62.2814 96.9868 62.2767 96.9785 62.2723C96.9871 62.2768 96.9958 62.2812 97.0045 62.2857H97.0025Z" fill="#010101"/>
<path d="M117.476 17.8928C115.374 17.8928 113.286 17.0598 111.832 15.4885C111.325 14.9396 111.358 14.0842 111.907 13.5764C112.454 13.0695 113.311 13.1018 113.818 13.6506C115.33 15.2854 118.026 15.6711 119.956 14.5354C120.479 14.2111 120.97 13.799 121.39 13.3264C123.01 11.5881 123.862 9.38203 123.691 7.40157C123.519 5.41524 122.394 3.14766 120.574 2.65841C119.853 2.46407 119.425 1.72189 119.62 1.00021C119.814 0.279514 120.555 -0.144316 121.277 0.0451344C124.455 0.900604 126.133 4.23947 126.386 7.16915C126.626 9.93966 125.534 12.8479 123.391 15.1467C122.818 15.7922 122.126 16.3733 121.355 16.8508C120.164 17.5529 118.817 17.8928 117.476 17.8928Z" fill="#434342"/>
<path d="M136.257 79.6661C135.273 79.6661 134.259 79.5577 133.243 79.3351C128.802 78.3595 125.178 75.503 123.298 71.4972C122.981 70.8214 123.272 70.0157 123.949 69.6984C124.624 69.38 125.43 69.671 125.748 70.3487C127.267 73.587 130.21 75.8985 133.823 76.6925C136.636 77.3107 139.357 76.8732 140.925 75.5528C141.497 75.0734 142.35 75.1446 142.831 75.7169C143.312 76.2882 143.239 77.1417 142.668 77.6232C141.088 78.9532 138.776 79.6661 136.257 79.6661Z" fill="#434342"/>
<path d="M119.56 63.1945C116.905 63.1945 112.958 61.9201 110.584 56.9758C108.355 52.2941 109.178 46.0431 112.309 43.8556C112.921 43.4289 113.765 43.5763 114.193 44.1906C114.621 44.8029 114.471 45.6457 113.858 46.0744C112.011 47.3644 111.263 52.1095 113.024 55.8088C115.183 60.3029 118.857 60.7775 120.497 60.3957C121.225 60.2267 121.951 60.6818 122.119 61.4093C122.287 62.1379 121.833 62.8644 121.106 63.0324C120.675 63.131 120.149 63.1945 119.56 63.1945Z" fill="#434342"/>
<path d="M205.447 33.5519C202.619 33.5519 200.659 32.6808 199.388 31.7785C196.862 29.9855 195.833 27.3 195.714 25.3849C195.667 24.6398 196.234 23.9972 196.979 23.9513C197.727 23.9064 198.367 24.4699 198.414 25.217C198.491 26.4494 199.202 28.3293 200.954 29.5724C202.972 31.0041 205.916 31.2336 209.468 30.2355C219.085 27.5412 217.103 19.1379 217.014 18.7814C216.833 18.0568 217.273 17.3224 217.998 17.1408C218.722 16.9601 219.457 17.4015 219.638 18.1252C220.614 22.0266 219.896 30.1232 210.199 32.84C208.397 33.3459 206.82 33.5519 205.447 33.5519Z" fill="#434342"/>
<path d="M146.593 96.3762C144.86 96.3762 143.257 96.012 141.793 95.2825C138.384 93.5852 136.587 90.2151 136.041 87.6272C135.887 86.8958 136.354 86.179 137.085 86.0247C137.819 85.8674 138.534 86.3382 138.688 87.0686C139.104 89.0374 140.454 91.593 142.999 92.8616C145.632 94.1741 149.006 93.8831 153.025 91.9964C153.701 91.679 154.506 91.969 154.824 92.6468C155.141 93.3225 154.85 94.1282 154.174 94.4456C151.432 95.7327 148.897 96.3762 146.593 96.3762Z" fill="#434342"/>
<path d="M116.842 43.4516V17.3704C116.842 16.6233 117.448 16.0178 118.195 16.0178C118.942 16.0178 119.547 16.6233 119.547 17.3704V41.2403L116.842 43.4516Z" fill="#434342"/>
<rect x="117" y="62" width="2" height="1096" fill="#434342"/>
<rect x="131" y="77" width="2" height="1081" fill="#434342"/>
<rect x="148" y="94" width="2" height="1064" fill="#434342"/>
<rect x="209" y="31" width="2" height="1127" fill="#434342"/>
<path d="M142.066 72.3149L139.883 79.1306L138.891 82.7181L144.006 83.6292L147.3 73.9351L142.066 72.3149Z" fill="#010101"/>
</g>
<defs>
<clipPath id="clip0_2988_18652">
<rect width="300" height="1000" fill="white"/>
</clipPath>
</defs>
</svg>
