<svg width="300" height="1000" viewBox="0 0 300 1000" fill="none" xmlns="http://www.w3.org/2000/svg">
<g clip-path="url(#clip0_2988_18652)">
<path d="M182.6 153.454C180.846 151.709 176.566 148.853 169.182 145.184C163.935 142.577 158.115 139.941 156.474 139.428C153.934 138.633 151.404 138.686 149.149 138.73C145.011 138.814 140.846 138.912 136.688 139.024C143.345 134.395 149.903 130.01 152.378 128.548C158.431 124.972 162.029 121.441 164.17 116.187C166.384 110.755 165.498 107.448 165.135 105.982C164.46 103.235 161.512 101.088 149.168 106.759C143.908 109.175 139.142 112.018 134.335 114.461C120.599 121.444 107.624 128.041 94.2354 138.825L92.963 139.851C87.9605 143.883 72.7384 156.151 69.1876 158.459C68.7789 158.724 68.3516 158.988 67.8419 159.304L67.7491 159.361C65.0558 161.024 61.7032 163.096 58.0362 167.251C57.6329 167.707 57.2599 168.136 56.8995 168.551L56.7462 168.727C54.6104 171.18 52.7657 173.299 46.9635 178.755C45.4454 179.881 44.1153 180.932 42.8106 181.963L42.6769 182.067C40.8399 183.523 39.5763 184.828 38.4518 185.988C35.483 189.055 33.9933 190.595 23.6485 190.994C15.7101 191.212 13.5909 192.16 12.6886 192.853C8.9581 195.713 6.81943 200.613 6.33115 207.417C5.96201 212.561 7.57841 231.486 10.7084 235.247C11.065 235.676 16.0909 243.592 24.9562 243.597C36.3423 243.603 49.4241 237.396 60.2432 229.663C61.9458 228.446 64.1205 228.098 66.114 228.735C66.2654 228.783 66.4086 228.829 66.5401 228.872C78.1427 232.623 83.1109 231.031 88.3775 229.346C91.2296 228.433 94.1788 227.489 98.796 227.489C102.046 227.489 117.191 228.042 121.355 227.099C123.567 226.598 125.205 225.143 126.621 224.093C134.985 217.888 138.929 217.938 142.999 217.383C149.3 216.524 158.67 216.33 163.705 216.227C167.655 216.144 169.458 216.106 169.969 213.621C170.524 210.852 169.408 207.408 166.91 204.173C164.394 200.917 159.848 197.33 154.634 197.027C152.301 196.894 150.045 197.255 148.057 197.572L147.797 197.613C145.607 197.96 142.138 198.359 139.952 198.651L140.414 193.626C141.338 190.859 141.866 188.498 142.698 187.329C143.299 186.486 144.112 187.397 145.258 185.253C145.488 184.823 146.019 182.762 147.503 185.361C148.595 187.308 149.848 189.403 151.518 191.253C153.289 193.216 155.591 194.733 158.176 195.643C159.65 196.161 160.764 196.354 162.284 196.354C162.555 196.354 162.847 196.348 163.168 196.336C165.159 196.266 169.13 194.958 170.476 191.567C170.952 190.369 170.781 189.003 170.159 187.874C168.794 185.395 167.705 183.401 166.746 181.645C163.829 176.299 162.221 173.353 157.974 166.224C156.345 163.49 150.479 157.228 148.324 155.564C149.104 155.958 165.322 163.165 169.142 163.639C173.701 164.204 178.718 164.23 182.566 159.625C183.896 158.035 183.832 154.68 182.6 153.454ZM111.24 200.69C108.688 200.57 105.492 200.208 103.428 198.466C100.472 195.969 100.147 190.979 100.193 186.91C100.213 185.236 101.303 183.1 103.037 181.334C104.509 179.835 107.161 178.808 111.487 177.578C113.262 178.08 117.358 179.067 122.65 179.252C123.083 179.69 123.646 180.191 124.388 180.803C125.974 182.107 127.209 182.072 128.398 182.814C126.684 186.142 125.608 190.241 125.676 193.307C125.722 195.282 126.482 197.861 128.374 199.974C125.527 200.216 122.666 200.413 119.839 200.564C117.072 200.71 114.115 200.824 111.24 200.69Z" fill="#C0DEE4"/>
<path d="M135.159 166.739C134.402 166.24 133.531 166.121 132.888 166.053C121.78 164.879 115.271 163.318 111.496 164.208C111.153 164.289 111.118 164.762 111.448 164.888C114.54 166.068 122.031 168.868 126.633 170.096C128.208 170.516 129.637 171.363 130.785 172.52L138.783 180.583C139.812 181.622 140.008 183.2 139.257 184.422C139.022 184.804 138.743 185.164 138.427 185.493C134.942 189.111 134.365 193.869 134.253 197.609C134.227 198.445 134.566 199.25 135.182 199.821C135.72 200.319 136.42 200.592 137.177 200.592C137.287 200.592 137.399 200.587 137.511 200.575C138.664 200.454 139.614 199.608 140 198.515L141.232 195.025C142.253 191.97 142.786 191.22 143.67 189.978C144.271 189.135 145.004 188.078 146.107 186.051C146.933 184.531 146.267 183.281 145.324 177.959C145.161 177.038 144.799 176.16 144.261 175.395C142.358 172.687 135.691 167.088 135.159 166.739Z" fill="#010101"/>
<path d="M170.448 145.828L169.255 145.241C166.016 143.632 158.299 139.834 156.591 139.3C154.936 138.783 152.45 138.184 149.964 138.218C144.521 137.851 137.324 138.169 133.828 140.146L111.196 154.244C110.758 154.517 110.911 155.189 111.425 155.241C116.301 155.726 131.23 157.369 139.253 159.984C141.42 160.692 143.66 161.423 145.449 162.759C147.734 164.469 149.274 167.191 150.632 169.592C151.964 171.945 153.181 174.348 154.364 176.685C155.551 179.032 156.935 181.376 158.143 183.867C164.382 196.735 171.865 190.947 170.004 187.713C169.247 186.397 168.582 184.987 167.974 183.754C167.468 182.73 167.002 181.787 166.581 181.015C163.673 175.688 162.071 172.752 157.834 165.64C152.204 156.192 142.455 150.526 129.501 149.118C134.902 146.828 139.199 146.219 144.328 146.036C151.322 145.815 157.712 148.521 165.113 151.684L165.343 151.783C166.54 152.293 168.054 153.438 169.731 154.706C172.931 157.127 176.921 160.143 180.136 159.798C182.106 159.77 183.397 158.398 183.568 156.127C183.643 155.139 183.273 154.181 182.6 153.454C179.782 150.407 174.388 147.761 170.448 145.828Z" fill="#010101"/>
<path d="M137.434 122.829C140.521 121.665 143.713 120.461 146.701 118.738C148.288 117.822 149.677 116.349 151.149 114.789C153.203 112.611 155.327 110.358 157.64 110.298C157.795 110.294 157.957 110.285 158.124 110.275C160.324 110.135 162.354 111.505 162.96 113.53C163.052 113.837 163.081 114.038 163.084 114.069L163.445 117.779L164.99 114.387C166.917 110.157 166.971 105.367 165.12 102.737C164.077 101.253 162.531 100.532 160.655 100.689C158.308 100.718 148.311 106.033 148.21 106.087C143.064 108.867 138.12 111.381 133.33 113.815C119.691 120.749 106.807 127.299 93.5824 137.951L92.3885 138.913C86.8177 143.404 72.0199 155.333 68.3656 157.707C67.9174 157.998 67.4471 158.289 66.8949 158.631C64.3124 160.226 61.099 162.21 57.6273 166.144C57.1952 166.634 56.7972 167.09 56.3509 167.603C54.1703 170.109 52.2865 172.274 46.3397 177.862C44.7631 179.028 43.3837 180.119 42.0106 181.205C40.2709 182.582 39.0541 183.84 37.9799 184.95C34.8514 188.181 32.9585 190.033 21.7948 190.563C7.74644 191.229 5.56188 200.004 5.17223 205.431C4.84215 210.031 4.93297 217.881 5.91881 224.285C7.21227 231.044 8.88805 233.067 10.1117 234.543L10.7074 235.247C10.7074 235.247 8.5229 223.13 16.1464 215.789C22.2277 209.933 26.1631 209.648 51.7504 200.988C56.3687 199.424 58.2797 195.289 60.5843 191.584C61.7992 189.631 63.056 187.611 64.681 185.756C68.4086 181.5 71.4086 181.195 74.5882 180.87C77.8871 180.534 81.2982 180.185 84.6361 175.122C85.1654 174.379 88.2103 167.987 88.7611 164.23C89.9105 157.15 94.8456 153.362 100.08 149.344C101.6 148.178 103.17 146.972 104.7 145.655C112.08 139.291 119.061 133.648 126.041 128.402C129.45 125.839 133.499 124.313 137.434 122.829Z" fill="#010101"/>
<path d="M131.294 213.841C130.547 213.841 129.941 213.236 129.941 212.489V194.376C129.941 193.629 130.547 193.024 131.294 193.024C132.041 193.024 132.647 193.629 132.647 194.376V212.489C132.647 213.236 132.041 213.841 131.294 213.841Z" fill="#434342"/>
<path d="M135.296 195.727C134.088 195.727 132.893 195.571 131.749 195.249C127.926 194.173 125.295 191.493 124.34 187.702C124.158 186.978 124.597 186.243 125.322 186.061C126.046 185.874 126.781 186.318 126.964 187.042C127.671 189.853 129.631 191.843 132.482 192.645C136.285 193.716 140.821 192.492 143.771 189.603C144.304 189.081 145.161 189.09 145.683 189.621C146.206 190.155 146.198 191.012 145.664 191.534C142.925 194.219 139.055 195.727 135.296 195.727Z" fill="#434342"/>
<path d="M148.343 219.065C148.219 219.065 148.095 219.062 147.969 219.057C147.223 219.025 146.643 218.394 146.675 217.648C146.707 216.902 147.338 216.308 148.084 216.354C150.864 216.491 152.465 214.626 153.316 213.058C155.325 209.356 155.213 203.691 153.072 200.686C152.002 199.183 150.558 198.574 148.775 198.866C148.039 198.985 147.341 198.491 147.219 197.754C147.097 197.017 147.595 196.321 148.332 196.198C151.138 195.732 153.603 196.77 155.276 199.115C157.994 202.931 158.182 209.764 155.694 214.348C154.038 217.402 151.437 219.065 148.343 219.065Z" fill="#434342"/>
<path d="M154.241 188.34C151.898 188.34 149.611 187.849 147.73 187.13C147.032 186.863 146.682 186.081 146.949 185.384C147.215 184.686 147.996 184.333 148.695 184.603C152.392 186.015 157.923 186.437 161.346 182.979C162.649 181.676 163.887 179.487 164.537 177.895C164.819 177.203 165.608 176.87 166.3 177.153C166.992 177.436 167.324 178.225 167.042 178.916C166.311 180.707 164.934 183.217 163.264 184.887C160.759 187.417 157.449 188.34 154.241 188.34Z" fill="#434342"/>
<path d="M153.315 128.348C149.244 128.348 146.505 125.496 144.843 123.767C144.442 123.364 144.071 122.91 143.744 122.51C141.024 119.055 140.042 114.308 140.965 109.124C141.096 108.39 141.798 107.909 142.533 108.029C143.269 108.16 143.759 108.863 143.628 109.599C142.843 114.012 143.633 117.996 145.854 120.818C146.14 121.167 146.451 121.548 146.776 121.873C149.519 124.729 152.139 126.906 156.627 124.83C157.305 124.516 158.109 124.812 158.423 125.489C158.737 126.168 158.441 126.972 157.763 127.285C156.131 128.04 154.651 128.348 153.315 128.348Z" fill="#434342"/>
<path d="M167.7 165.506C167.015 165.506 166.459 164.95 166.459 164.265C166.459 163.579 167.015 163.024 167.7 163.024C172.121 163.024 175.223 158.901 176.001 154.828C176.522 152.104 176.045 148.781 173.141 147.629C172.504 147.376 172.192 146.655 172.445 146.018C172.698 145.381 173.42 145.071 174.056 145.322C177.608 146.733 179.328 150.647 178.439 155.294C177.469 160.368 173.468 165.506 167.7 165.506Z" fill="#434342"/>
<path d="M141.578 198.441L127.756 200.025L129.888 217.37L142.213 200.592L141.578 198.441Z" fill="#C0DEE4"/>
<path d="M155.854 216.419C158.79 216.311 161.505 216.255 163.524 216.214C167.474 216.131 169.277 216.093 169.788 213.608C170.342 210.839 169.227 207.396 166.729 204.16C164.212 200.904 159.667 197.317 154.453 197.015C154.453 197.015 160.098 208.071 159.157 209.86C158.215 211.648 155.854 216.419 155.854 216.419Z" fill="#C0DEE4"/>
<rect x="160" y="185" width="2" height="973" fill="#434342"/>
<rect x="173" y="161" width="2" height="997" fill="#434342"/>
</g>
<defs>
<clipPath id="clip0_2988_18652">
<rect width="300" height="1000" fill="white"/>
</clipPath>
</defs>
</svg>
